<?xml version="1.0" encoding="UTF-8" standalone="no"?>
<svg width="10px" height="12px" viewBox="0 0 10 12" version="1.1" xmlns="http://www.w3.org/2000/svg" xmlns:xlink="http://www.w3.org/1999/xlink">
    <!-- Generator: Sketch 48.2 (47327) - http://www.bohemiancoding.com/sketch -->
    <title>Fill 2418</title>
    <desc>Created with Sketch.</desc>
    <defs></defs>
    <g id="Tablet-9″" stroke="none" stroke-width="1" fill="none" fill-rule="evenodd" transform="translate(-618.000000, -459.000000)">
        <g id="Group-2" transform="translate(388.000000, 291.000000)" fill="#FFFFFF">
            <g id="Group-Copy-48" transform="translate(222.000000, 168.000000)">
                <path d="M8.8883167,11.0768546 C8.8883167,11.318245 8.68233022,11.5177944 8.44093981,11.5177944 C8.20276794,11.5177944 8,11.318245 8,11.0736361 C8,10.2690014 8.33150949,9.66713465 8.78532346,9.2229763 C9.4193756,8.61467247 10.3076923,8.34753375 10.8355327,8.3024742 C10.9417444,8.28960005 11.0350821,8.24775905 11.1026714,8.18660681 C11.1445124,8.1447658 11.1670422,8.09005064 11.1799163,8.04177256 C10.7647248,7.69738891 10.5716125,7.22748225 10.4139041,6.82838344 C10.3334406,6.63205258 10.2626328,6.4679071 10.2240103,6.42284756 L10.2175732,6.41962902 L10.2143547,6.41641048 L10.2111361,6.41641048 L10.2111361,6.41319194 C10.0244609,6.24260938 9.76375925,5.9207555 9.62858062,5.55706062 C9.49018346,5.19658428 9.45477953,4.79748547 9.66398455,4.43379059 C9.55133569,4.09906255 9.49662053,3.73536767 9.49662053,3.35879863 C9.49018346,2.87601782 9.56420985,2.39001846 9.71548117,1.94264157 L9.7347924,1.9040191 C9.9504345,1.27962258 10.3141294,0.822590072 10.777599,0.51039181 C11.2764725,0.169226699 11.8912134,0.0179553762 12.5831992,0.00186268226 C12.8406823,-0.00135585652 13.1915031,-0.00779293409 13.5358867,0.0565778416 C13.9285484,0.127385695 14.2986804,0.278657018 14.5239781,0.594073818 C14.9906662,0.552232814 15.3962021,0.812934456 15.7148375,1.18950349 C16.1042807,1.64009892 16.3842935,2.29989937 16.4422272,2.69256111 C16.4937238,2.9822296 16.4937238,3.2815537 16.4486643,3.60340758 C16.4164789,3.85123507 16.3617638,4.11837379 16.2845188,4.38229397 C16.5259092,4.758863 16.4937238,5.18049158 16.3553267,5.55062354 C16.2169295,5.91753697 15.9594464,6.24260938 15.7695526,6.4099734 L15.7631155,6.41641048 L15.7566785,6.42284756 L15.7566785,6.42606609 C15.7116189,6.4679071 15.6408111,6.63527111 15.5635661,6.82838344 C15.4090763,7.22426371 15.222401,7.68451476 14.8168651,8.02246133 C14.8265208,8.08039503 14.8587061,8.13832873 14.9037657,8.18660681 C14.9649179,8.24775905 15.0646926,8.28960005 15.1709044,8.3024742 C15.6955262,8.34753375 16.5806244,8.61467247 17.2146765,9.2229763 C17.6684905,9.66391611 18,10.2690014 18,11.0768546 C18,11.318245 17.8004506,11.5177944 17.5622787,11.5177944 C17.3176698,11.5177944 17.1213389,11.318245 17.1213389,11.0736361 C17.1213389,10.5457957 16.9024783,10.153134 16.6031542,9.86346551 C16.1332475,9.41608862 15.4798841,9.21332068 15.0904409,9.18435383 C14.7782427,9.15216844 14.4885742,9.02020835 14.2729321,8.80778479 C14.0347602,8.57605 13.6968136,7.69738891 14.1377535,7.41737604 C14.4499517,7.23391933 14.6140972,6.83482052 14.7428388,6.49687395 C14.8651432,6.20076838 14.9649179,5.94006674 15.1676859,5.75982857 L15.1676859,5.76626564 L15.1709044,5.75982857 C15.2803347,5.6632724 15.4444802,5.463723 15.5249437,5.24486236 C15.5860959,5.08071688 15.5989701,4.9165714 15.4927583,4.80392255 L15.4959768,4.80392255 C15.3801094,4.675181 15.3382684,4.4434462 15.3929836,4.28251926 C15.4798841,4.00250639 15.5442549,3.74180475 15.5732218,3.49075872 C15.5989701,3.25258685 15.6054071,3.03372622 15.5700032,2.81808412 C15.5313808,2.55416394 15.3286128,2.09391289 15.0453814,1.75918486 C14.8941101,1.58216522 14.7299646,1.45342367 14.5915674,1.47917198 C14.4370776,1.49848322 14.2858062,1.47917198 14.1474091,1.41480121 C14.0283231,1.35686751 13.9221114,1.26674842 13.8416479,1.15088103 L13.812681,1.11869564 C13.7450917,1.01892094 13.5745092,0.957768701 13.3781783,0.922364774 C13.1174767,0.874086693 12.8213711,0.88052377 12.6025105,0.886960848 C12.0778886,0.893397925 11.6208561,0.999609705 11.2668169,1.24421865 C10.9578371,1.45020513 10.7196653,1.75918486 10.5651754,2.19690613 L10.5523013,2.23231006 C10.4364339,2.57991225 10.3688445,2.9661369 10.3752816,3.34592448 C10.3817187,3.68065251 10.4364339,4.00572493 10.5458642,4.27608219 C10.5973608,4.35976419 10.616672,4.46597597 10.5941423,4.56575068 C10.5458642,4.85541917 10.3141294,4.86507478 10.4525266,5.24486236 C10.53299,5.45084884 10.6906984,5.65039825 10.8001287,5.75339149 L10.8130029,5.77270272 L10.81944,5.77270272 C11.0125523,5.94972235 11.1155455,6.20398692 11.2314129,6.49687395 C11.3698101,6.83482052 11.5339556,7.24035641 11.8397168,7.43025019 C11.9781139,7.50105805 12.0746701,7.64589229 12.0746701,7.81969339 C12.0746701,8.19948096 12.0102993,8.52455338 11.7270679,8.80778479 C11.5210814,9.02020835 11.2249759,9.15216844 10.903122,9.18435383 C10.5168973,9.21332068 9.86675249,9.41608862 9.40328291,9.86346551 C9.10074026,10.153134 8.8883167,10.5457957 8.8883167,11.0768546" id="Fill-2418"></path>
            </g>
        </g>
    </g>
</svg>